<?xml version="1.0" encoding="UTF-8" standalone="no"?>
<svg width="256px" height="256px" viewBox="0 0 256 256" version="1.1" xmlns="http://www.w3.org/2000/svg" xmlns:xlink="http://www.w3.org/1999/xlink" xmlns:sketch="http://www.bohemiancoding.com/sketch/ns">
    <!-- Generator: Sketch 3.4.4 (17249) - http://www.bohemiancoding.com/sketch -->
    <title>favicon</title>
    <desc>Created with Sketch.</desc>
    <defs>
        <path id="path-1" d="M14,127 L78,181 L72,188 L230,189 L32,16 L27,15 L9,-1.77635684e-15 L0,7 L17,21 L1,24 L24,45 L14,127 Z"></path>
        <path d="M78.1468927,161.6875 C79.4350282,163.617457 80.5084746,165.547414 81.1525424,167.477371 C81.5819209,168.764009 78.3615819,182.917026 72.1355932,189.564655 L97.6836158,189.779095 C101.118644,183.989224 107.559322,172.409483 108.632768,168.12069 C117.00565,172.623922 124.090395,174.553879 129.672316,174.33944 C137.615819,170.693966 131.819209,111.9375 107.774011,83.2025862 C94.8926554,67.9773707 75.3559322,62.1875 59.039548,61.544181 C49.1638418,51.0366379 42.2937853,32.1659483 40.7909605,27.8771552 C38.6440678,21.8728448 35.2090395,18.4418103 28.7683616,15.8685345 C25.1186441,14.3674569 20.6101695,14.5818966 16.960452,15.6540948 C17.3898305,4.71767241 10.519774,0 5.15254237,0 C2.36158192,0 0,2.35883621 0,5.14655172 C0,7.93426724 2.36158192,10.2931034 5.15254237,10.2931034 C5.15254237,10.2931034 13.740113,9.86422414 16.1016949,15.8685345 C13.9548023,16.7262931 12.2372881,17.7984914 11.3785311,19.299569 C9.23163842,19.299569 1.50282486,23.3739224 2.36158192,27.8771552 C2.36158192,27.8771552 15.4576271,26.1616379 12.8813559,37.955819 C-0.429378531,98.4278017 -7.29943503,137.884698 73.2090395,160.400862 C75.1412429,161.044181 76.6440678,161.47306 78.1468927,161.6875 Z M89.9548023,189.350216 L80.079096,189.350216 C83.7288136,183.131466 91.0282486,170.265086 91.2429379,166.619612 L91.2429379,166.619612 L91.2429379,166.619612 L91.2429379,166.619612 L91.2429379,166.619612 C90.8135593,166.190733 89.5254237,164.046336 87.5932203,161.258621 C89.3107345,161.044181 91.2429379,161.044181 93.6045198,161.258621 C95.7514124,163.831897 97.6836158,166.405172 98.9717514,168.978448 C98.3276836,172.838362 95.3220339,183.774784 89.9548023,189.350216 L89.9548023,189.350216 Z M45.0847458,85.5614224 C45.5141243,84.2747845 45.9435028,83.2025862 46.1581921,82.3448276 C46.3728814,81.7015086 46.5875706,81.2726293 46.5875706,81.2726293 C46.5875706,81.2726293 46.1581921,82.7737069 45.9435028,85.5614224 C45.7288136,88.3491379 45.5141243,92.4234914 46.1581921,96.9267241 C46.3728814,99.2855603 46.8022599,101.644397 47.6610169,104.217672 C47.8757062,104.860991 48.0903955,105.50431 48.3050847,106.147629 C48.519774,106.790948 48.7344633,107.434267 49.1638418,108.077586 C49.3785311,108.720905 49.5932203,109.364224 50.0225989,110.007543 C50.4519774,110.650862 50.6666667,111.294181 51.0960452,111.9375 C52.3841808,114.510776 54.3163842,116.655172 56.4632768,118.585129 C57.5367232,119.657328 58.8248588,120.515086 59.8983051,121.372845 C61.1864407,122.230603 62.4745763,122.873922 63.7627119,123.731681 C66.5536723,125.018319 69.1299435,126.304957 72.1355932,127.377155 C75.1412429,128.449353 77.9322034,129.521552 80.7231638,130.164871 C82.2259887,130.59375 83.5141243,131.022629 85.0169492,131.237069 C86.3050847,131.665948 87.8079096,131.880388 89.0960452,132.309267 C90.3841808,132.523707 91.6723164,132.952586 92.960452,133.167026 C94.2485876,133.381466 95.3220339,133.595905 96.6101695,133.810345 C101.333333,134.453664 105.19774,134.882543 107.988701,134.882543 C110.779661,134.882543 112.497175,134.668103 112.497175,134.668103 C112.497175,134.668103 110.99435,135.311422 108.20339,135.740302 C105.412429,136.383621 101.333333,136.8125 96.3954802,136.59806 C94.0338983,136.59806 91.2429379,136.383621 88.4519774,135.954741 C86.9491525,135.740302 85.6610169,135.525862 84.1581921,135.311422 C82.6553672,135.096983 81.1525424,134.668103 79.6497175,134.453664 C78.1468927,134.024784 76.6440678,133.810345 75.1412429,133.381466 C73.6384181,132.952586 72.1355932,132.523707 70.6327684,131.880388 C67.6271186,131.022629 64.4067797,129.521552 61.4011299,128.020474 C59.8983051,127.162716 58.3954802,126.304957 57.1073446,125.232759 C55.819209,124.16056 54.5310734,123.088362 53.2429379,121.801724 C50.8813559,119.442888 48.9491525,116.655172 47.4463277,113.653017 C46.8022599,112.15194 45.9435028,110.865302 45.7288136,109.364224 C45.5141243,108.720905 45.299435,107.863147 45.0847458,107.219828 C44.8700565,106.576509 44.8700565,105.71875 44.6553672,105.075431 C44.0112994,102.287716 43.7966102,99.5 43.7966102,97.1411638 C43.3672316,92.4234914 44.2259887,88.3491379 45.0847458,85.5614224 L45.0847458,85.5614224 Z" id="path-3"></path>
    </defs>
    <g id="Page-1" stroke="none" stroke-width="1" fill="none" fill-rule="evenodd" sketch:type="MSPage">
        <g id="favicon" sketch:type="MSArtboardGroup">
            <g sketch:type="MSLayerGroup" id="Oval-1">
                <circle fill="#FF5200" sketch:type="MSShapeGroup" cx="128" cy="128" r="128"></circle>
                <g transform="translate(50.000000, 70.000000)">
                    <mask id="mask-2" sketch:name="Mask" fill="white">
                        <use xlink:href="#path-1"></use>
                    </mask>
                    <use id="Mask" sketch:type="MSShapeGroup" xlink:href="#path-1"></use>
                    <circle fill-opacity="0.2" fill="#000000" sketch:type="MSShapeGroup" mask="url(#mask-2)" cx="78" cy="58" r="128"></circle>
                </g>
                <g transform="translate(47.000000, 67.000000)">
                    <mask id="mask-4" sketch:name="Mask" fill="white">
                        <use xlink:href="#path-3"></use>
                    </mask>
                    <use id="Mask" sketch:type="MSShapeGroup" xlink:href="#path-3"></use>
                    <circle fill="#FFFFFF" sketch:type="MSShapeGroup" mask="url(#mask-4)" cx="79" cy="62" r="128"></circle>
                </g>
            </g>
        </g>
    </g>
</svg>